<?xml version="1.0" standalone="no"?>
<!DOCTYPE svg PUBLIC "-//W3C//DTD SVG 20010904//EN"
 "http://www.w3.org/TR/2001/REC-SVG-20010904/DTD/svg10.dtd">
<svg version="1.0" xmlns="http://www.w3.org/2000/svg"
 width="2534.000000pt" height="516.000000pt" viewBox="0 0 2534.000000 516.000000"
 preserveAspectRatio="xMidYMid meet">
<metadata>
Created by potrace 1.15, written by Peter Selinger 2001-2017
</metadata>
<g transform="translate(0.000000,516.000000) scale(0.100000,-0.100000)"
fill="#000000" stroke="none">
<path d="M13607 4140 c-362 -46 -671 -195 -914 -440 -121 -122 -208 -244 -282
-395 -125 -253 -181 -524 -167 -805 50 -1019 936 -1673 1957 -1445 263 58 503
192 734 409 l90 85 -177 177 -176 177 -75 -62 c-188 -159 -356 -256 -515 -298
-85 -23 -118 -26 -262 -27 -131 -1 -180 3 -240 18 -462 117 -770 538 -770
1051 0 508 308 924 770 1041 59 15 108 19 235 18 139 -1 173 -4 257 -27 156
-41 372 -163 510 -286 31 -28 61 -51 66 -51 6 0 87 89 182 198 l171 197 -48
43 c-256 229 -509 353 -828 408 -106 18 -421 27 -518 14z"/>
<path d="M6360 2581 l0 -1521 265 0 265 0 0 530 0 530 329 0 330 0 373 -529
373 -530 319 0 c252 -1 317 2 313 12 -2 7 -185 265 -405 574 l-400 562 66 22
c167 54 334 165 440 290 70 83 152 239 176 334 43 169 43 375 1 540 -94 371
-364 596 -819 682 -67 13 -215 17 -853 20 l-773 4 0 -1520z m1541 1002 c238
-66 361 -202 384 -423 22 -212 -84 -398 -277 -490 -140 -66 -178 -70 -678 -70
l-440 0 0 506 0 506 468 -4 c438 -4 472 -6 543 -25z"/>
<path d="M9480 2580 l0 -1520 1135 0 1135 0 0 245 0 245 -865 0 -865 0 0 400
0 400 755 0 755 0 0 245 0 245 -755 0 -755 0 0 385 0 385 855 0 855 0 0 245 0
245 -1125 0 -1125 0 0 -1520z"/>
<path d="M15560 2580 l0 -1520 1135 0 1135 0 0 245 0 245 -865 0 -865 0 0 400
0 400 760 0 760 0 0 245 0 245 -760 0 -760 0 0 385 0 385 855 0 855 0 0 245 0
245 -1125 0 -1125 0 0 -1520z"/>
<path d="M18490 2580 l0 -1520 270 0 270 0 0 1520 0 1520 -270 0 -270 0 0
-1520z"/>
<path d="M19574 4083 c4 -10 287 -697 630 -1528 l623 -1510 239 -3 239 -2 624
1512 c343 832 626 1521 629 1531 4 16 -13 17 -288 15 l-293 -3 -448 -1149
c-247 -632 -450 -1150 -452 -1152 -3 -3 -690 1741 -885 2244 l-24 62 -300 0
c-281 0 -299 -1 -294 -17z"/>
<path d="M23070 2580 l0 -1520 1135 0 1135 0 0 245 0 245 -865 0 -865 0 0 400
0 400 760 0 760 0 0 245 0 245 -760 0 -760 0 0 385 0 385 855 0 855 0 0 245 0
245 -1125 0 -1125 0 0 -1520z"/>
</g>
</svg>
